<?xml version="1.0" standalone="no"?>
<!DOCTYPE svg PUBLIC "-//W3C//DTD SVG 20010904//EN"
 "http://www.w3.org/TR/2001/REC-SVG-20010904/DTD/svg10.dtd">
<svg version="1.0" xmlns="http://www.w3.org/2000/svg"
 width="500.000000pt" height="500.000000pt" viewBox="0 0 500.000000 500.000000"
 preserveAspectRatio="xMidYMid meet">

<g transform="translate(0.000000,500.000000) scale(0.100000,-0.100000)"
fill="#000000" stroke="none">
<path d="M3435 3036 c-112 -24 -141 -42 -150 -96 -8 -44 -15 -51 -15 -16 0 16
-4 25 -10 21 -6 -4 -7 -11 -4 -17 4 -6 2 -8 -3 -5 -6 4 -16 0 -23 -8 -7 -8 -9
-15 -5 -15 5 0 1 -8 -8 -17 -8 -10 -18 -36 -20 -58 -6 -48 -30 -133 -45 -161
-5 -10 -19 -27 -30 -37 -20 -18 -21 -18 -32 3 -14 26 -7 134 16 243 18 87 18
87 -6 87 -11 0 -20 5 -20 10 0 17 -48 11 -55 -7 -31 -84 -56 -336 -36 -385 13
-36 66 -68 110 -68 57 0 97 33 135 113 34 72 67 210 68 286 0 45 13 61 31 41
9 -10 8 -12 -5 -7 -12 4 -18 1 -18 -8 0 -18 34 -28 74 -21 l32 6 -13 -77 c-23
-133 -33 -243 -26 -291 l6 -45 19 22 c10 13 18 29 18 37 0 7 5 16 11 20 8 5
10 -2 6 -22 -4 -25 -4 -27 8 -11 7 10 16 39 20 64 4 25 11 53 15 62 5 9 19 72
32 141 l23 124 34 7 c18 4 43 16 54 28 l21 21 -34 30 c-41 35 -45 35 -175 6z
m-348 -108 c-3 -8 -6 -5 -6 6 -1 11 2 17 5 13 3 -3 4 -12 1 -19z"/>
<path d="M3234 3013 c2 -13 -1 -23 -7 -23 -6 0 -2 -6 9 -14 13 -10 23 -11 31
-4 15 12 18 42 3 33 -6 -4 -8 -11 -5 -16 4 -5 -1 -9 -10 -9 -13 0 -14 4 -4 21
6 13 7 19 1 15 -6 -3 -13 0 -16 6 -4 7 -4 3 -2 -9z"/>
<path d="M2736 2958 c-8 -13 -27 -50 -41 -83 -94 -212 -41 -427 96 -386 46 14
83 56 123 141 26 57 30 76 31 152 0 73 -3 91 -21 115 -12 15 -25 27 -30 26 -5
0 -17 3 -28 9 -13 7 -21 6 -28 -3 -7 -11 -8 -9 -4 4 11 33 -4 38 -30 9 l-24
-27 10 28 c13 38 14 37 -15 37 -14 0 -31 -9 -39 -22z m101 -124 c24 -81 5
-172 -46 -218 -20 -18 -21 -18 -31 8 -20 54 -9 146 27 224 19 41 34 37 50 -14z"/>
<path d="M3217 2948 c-8 -30 -1 -35 12 -9 6 11 7 22 2 25 -5 3 -11 -4 -14 -16z"/>
<path d="M2453 2939 c-57 -36 -134 -177 -163 -297 -18 -75 -9 -156 19 -186 31
-33 93 -43 126 -22 31 20 35 20 36 -1 0 -16 1 -16 8 1 5 12 10 16 14 9 4 -6 4
-18 1 -27 -4 -10 -1 -16 9 -16 8 0 17 13 21 31 3 17 10 28 15 24 6 -3 8 -12 4
-20 -3 -8 -1 -15 4 -15 8 0 20 80 26 183 1 9 5 17 10 17 4 0 5 5 2 10 -3 6 1
10 9 10 9 0 16 4 16 9 0 5 2 16 5 23 11 28 -39 39 -116 26 -57 -9 -72 -15 -79
-32 -9 -25 -3 -46 18 -64 14 -11 14 -15 -5 -40 -33 -44 -48 -35 -47 28 2 64
53 206 90 248 l23 27 1 -48 c0 -80 29 -109 68 -69 31 34 40 57 36 102 -3 35
-11 50 -36 72 -18 15 -38 28 -45 28 -6 0 -17 2 -25 5 -7 3 -27 -4 -45 -16z"/>
<path d="M2198 2908 c-14 -11 -33 -102 -51 -248 -3 -21 -9 -13 -35 43 -18 37
-32 70 -32 72 0 3 -11 22 -24 43 -21 34 -27 38 -67 37 -51 0 -48 9 -79 -204
-27 -182 -33 -261 -18 -261 6 0 16 -7 23 -17 13 -18 35 -10 35 13 0 8 4 13 8
10 9 -5 47 208 39 221 -2 4 -1 17 3 28 l8 20 7 -20 c5 -11 32 -71 62 -133 39
-82 58 -112 68 -108 8 3 17 1 20 -4 9 -14 37 1 31 17 -3 8 -2 11 4 8 13 -8 28
55 40 166 5 52 16 135 25 184 20 123 20 138 -4 130 -11 -3 -22 -1 -26 5 -8 13
-18 13 -37 -2z m-211 -220 c-3 -8 -6 -5 -6 6 -1 11 2 17 5 13 3 -3 4 -12 1
-19z"/>
<path d="M1706 2851 c-17 -19 -186 -440 -186 -464 0 -9 11 -28 24 -44 20 -23
26 -25 40 -14 9 7 13 17 10 22 -3 5 2 9 10 9 10 0 18 14 22 38 10 53 19 67 58
86 54 26 66 22 66 -23 0 -60 11 -101 27 -101 8 0 12 -4 8 -9 -3 -5 -1 -12 4
-15 5 -4 15 10 22 29 7 19 17 35 22 35 8 0 3 222 -8 315 -1 17 -3 47 -4 68 -1
23 -5 36 -11 32 -5 -3 -10 3 -10 13 0 29 -73 47 -94 23z m34 -220 c0 -20 -6
-30 -20 -34 -11 -3 -20 -4 -20 -3 0 2 5 17 11 35 14 39 29 40 29 2z"/>
<path d="M1446 2803 c-5 -17 -19 -98 -31 -173 -5 -32 -8 -35 -44 -38 l-38 -2
13 72 c7 40 13 81 13 90 1 25 -27 48 -60 48 -36 0 -42 -13 -59 -130 -6 -46
-16 -93 -22 -104 -6 -11 -12 -40 -13 -65 -3 -63 -16 -174 -22 -183 -2 -5 -1
-13 3 -20 5 -8 10 -6 15 8 6 15 8 12 8 -13 1 -42 11 -46 42 -19 23 20 46 84
40 109 -1 5 4 26 10 47 10 34 17 41 46 46 19 4 36 4 39 1 3 -2 -1 -47 -9 -98
-11 -72 -11 -96 -2 -104 6 -5 14 -18 18 -27 9 -25 30 -22 55 7 23 26 43 128
76 386 9 64 18 123 22 132 9 26 -7 43 -21 23 -12 -15 -13 -15 -18 4 -7 26 -53
28 -61 3z"/>
</g>
</svg>
